<?xml version="1.0" encoding="UTF-8" standalone="no"?>
<!DOCTYPE svg PUBLIC "-//W3C//DTD SVG 1.1//EN" "http://www.w3.org/Graphics/SVG/1.1/DTD/svg11.dtd">
<svg width="418px" height="418px" version="1.1" xmlns="http://www.w3.org/2000/svg" xmlns:xlink="http://www.w3.org/1999/xlink" xml:space="preserve" xmlns:serif="http://www.serif.com/" style="fill-rule:evenodd;clip-rule:evenodd;stroke-linecap:round;stroke-linejoin:round;stroke-miterlimit:1.5;">
    <rect id="diagonal2" x="0.667" y="0.667" width="416.667" height="416.667" style="fill:none;"/>
    <clipPath id="_clip1">
        <rect x="0.667" y="0.667" width="416.667" height="416.667"/>
    </clipPath>
    <g clip-path="url(#_clip1)">
        <path d="M375.667,-20.167l62.5,62.5" style="fill:none;stroke:black;stroke-width:4.17px;"/>
        <path d="M334,-20.167l104.167,104.167" style="fill:none;stroke:black;stroke-width:4.17px;"/>
        <path d="M292.333,-20.167l145.834,145.834" style="fill:none;stroke:black;stroke-width:4.17px;"/>
        <path d="M250.667,-20.167l187.5,187.5" style="fill:none;stroke:black;stroke-width:4.17px;"/>
        <path d="M209,-20.167l229.167,229.167" style="fill:none;stroke:black;stroke-width:4.17px;"/>
        <path d="M167.333,-20.167l270.834,270.834" style="fill:none;stroke:black;stroke-width:4.17px;"/>
        <path d="M125.667,-20.167l312.5,312.5" style="fill:none;stroke:black;stroke-width:4.17px;"/>
        <path d="M84,-20.167l354.167,354.167" style="fill:none;stroke:black;stroke-width:4.17px;"/>
        <path d="M42.333,-20.167l395.834,395.834" style="fill:none;stroke:black;stroke-width:4.17px;"/>
        <path d="M0.667,-20.167l437.5,437.5" style="fill:none;stroke:black;stroke-width:4.17px;"/>
        <path d="M-20.167,0.667l437.5,437.5" style="fill:none;stroke:black;stroke-width:4.17px;"/>
        <path d="M-20.167,42.333l395.834,395.834" style="fill:none;stroke:black;stroke-width:4.17px;"/>
        <path d="M-20.167,84l354.167,354.167" style="fill:none;stroke:black;stroke-width:4.17px;"/>
        <path d="M-20.167,125.667l312.5,312.5" style="fill:none;stroke:black;stroke-width:4.17px;"/>
        <path d="M-20.167,167.333l270.834,270.834" style="fill:none;stroke:black;stroke-width:4.17px;"/>
        <path d="M-20.167,209l229.167,229.167" style="fill:none;stroke:black;stroke-width:4.17px;"/>
        <path d="M-20.167,250.667l187.5,187.5" style="fill:none;stroke:black;stroke-width:4.17px;"/>
        <path d="M-20.167,292.333l145.834,145.834" style="fill:none;stroke:black;stroke-width:4.17px;"/>
        <path d="M-20.167,334l104.167,104.167" style="fill:none;stroke:black;stroke-width:4.17px;"/>
        <path d="M-20.167,375.667l62.5,62.5" style="fill:none;stroke:black;stroke-width:4.17px;"/>
    </g>
</svg>
