<?xml version="1.0" encoding="UTF-8" standalone="no"?>
<!DOCTYPE svg PUBLIC "-//W3C//DTD SVG 1.1//EN" "http://www.w3.org/Graphics/SVG/1.1/DTD/svg11.dtd">
<svg width="418px" height="417px" version="1.1" xmlns="http://www.w3.org/2000/svg" xmlns:xlink="http://www.w3.org/1999/xlink" xml:space="preserve" xmlns:serif="http://www.serif.com/" style="fill-rule:evenodd;clip-rule:evenodd;stroke-linejoin:round;stroke-miterlimit:2;">
    <rect id="dots" x="0.667" y="0" width="416.667" height="416.667" style="fill:none;"/>
    <g id="dots1" serif:id="dots">
        <circle cx="31.917" cy="10.33" r="3.089"/>
        <circle cx="31.917" cy="177.17" r="3.089"/>
        <circle cx="31.917" cy="93.836" r="3.089"/>
        <circle cx="31.917" cy="260.676" r="3.089"/>
        <circle cx="31.917" cy="343.836" r="3.089"/>
        <circle cx="31.917" cy="51.997" r="3.089"/>
        <circle cx="31.917" cy="218.836" r="3.089"/>
        <circle cx="31.917" cy="135.503" r="3.089"/>
        <circle cx="31.917" cy="302.342" r="3.089"/>
        <circle cx="31.917" cy="385.503" r="3.089"/>
        <circle cx="11.083" cy="31.164" r="3.089"/>
        <circle cx="11.083" cy="198.003" r="3.089"/>
        <circle cx="11.083" cy="114.67" r="3.089"/>
        <circle cx="11.083" cy="281.509" r="3.089"/>
        <circle cx="11.083" cy="364.67" r="3.089"/>
        <circle cx="11.083" cy="72.83" r="3.089"/>
        <circle cx="11.083" cy="239.67" r="3.089"/>
        <circle cx="11.083" cy="156.336" r="3.089"/>
        <circle cx="11.083" cy="323.176" r="3.089"/>
        <circle cx="11.083" cy="406.336" r="3.089"/>
        <circle cx="73.583" cy="10.33" r="3.089"/>
        <circle cx="73.583" cy="177.17" r="3.089"/>
        <circle cx="73.583" cy="93.836" r="3.089"/>
        <circle cx="73.583" cy="260.676" r="3.089"/>
        <circle cx="73.583" cy="343.836" r="3.089"/>
        <circle cx="73.583" cy="51.997" r="3.089"/>
        <circle cx="73.583" cy="218.836" r="3.089"/>
        <circle cx="73.583" cy="135.503" r="3.089"/>
        <circle cx="73.583" cy="302.342" r="3.089"/>
        <circle cx="73.583" cy="385.503" r="3.089"/>
        <circle cx="52.75" cy="31.164" r="3.089"/>
        <circle cx="52.75" cy="198.003" r="3.089"/>
        <circle cx="52.75" cy="114.67" r="3.089"/>
        <circle cx="52.75" cy="281.509" r="3.089"/>
        <circle cx="52.75" cy="364.67" r="3.089"/>
        <circle cx="52.75" cy="72.83" r="3.089"/>
        <circle cx="52.75" cy="239.67" r="3.089"/>
        <circle cx="52.75" cy="156.336" r="3.089"/>
        <circle cx="52.75" cy="323.176" r="3.089"/>
        <circle cx="52.75" cy="406.336" r="3.089"/>
        <circle cx="115.25" cy="10.33" r="3.089"/>
        <circle cx="115.25" cy="177.17" r="3.089"/>
        <circle cx="115.25" cy="93.836" r="3.089"/>
        <circle cx="115.25" cy="260.676" r="3.089"/>
        <circle cx="115.25" cy="343.836" r="3.089"/>
        <circle cx="115.25" cy="51.997" r="3.089"/>
        <circle cx="115.25" cy="218.836" r="3.089"/>
        <circle cx="115.25" cy="135.503" r="3.089"/>
        <circle cx="115.25" cy="302.342" r="3.089"/>
        <circle cx="115.25" cy="385.503" r="3.089"/>
        <circle cx="94.417" cy="31.164" r="3.089"/>
        <circle cx="94.417" cy="198.003" r="3.089"/>
        <circle cx="94.417" cy="114.67" r="3.089"/>
        <circle cx="94.417" cy="281.509" r="3.089"/>
        <circle cx="94.417" cy="364.67" r="3.089"/>
        <circle cx="94.417" cy="72.83" r="3.089"/>
        <circle cx="94.417" cy="239.67" r="3.089"/>
        <circle cx="94.417" cy="156.336" r="3.089"/>
        <circle cx="94.417" cy="323.176" r="3.089"/>
        <circle cx="94.417" cy="406.336" r="3.089"/>
        <circle cx="156.917" cy="10.33" r="3.089"/>
        <circle cx="156.917" cy="177.17" r="3.089"/>
        <circle cx="156.917" cy="93.836" r="3.089"/>
        <circle cx="156.917" cy="260.676" r="3.089"/>
        <circle cx="156.917" cy="343.836" r="3.089"/>
        <circle cx="156.917" cy="51.997" r="3.089"/>
        <circle cx="156.917" cy="218.836" r="3.089"/>
        <circle cx="156.917" cy="135.503" r="3.089"/>
        <circle cx="156.917" cy="302.342" r="3.089"/>
        <circle cx="156.917" cy="385.503" r="3.089"/>
        <circle cx="136.083" cy="31.164" r="3.089"/>
        <circle cx="136.083" cy="198.003" r="3.089"/>
        <circle cx="136.083" cy="114.67" r="3.089"/>
        <circle cx="136.083" cy="281.509" r="3.089"/>
        <circle cx="136.083" cy="364.67" r="3.089"/>
        <circle cx="136.083" cy="72.83" r="3.089"/>
        <circle cx="136.083" cy="239.67" r="3.089"/>
        <circle cx="136.083" cy="156.336" r="3.089"/>
        <circle cx="136.083" cy="323.176" r="3.089"/>
        <circle cx="136.083" cy="406.336" r="3.089"/>
        <circle cx="198.583" cy="10.33" r="3.089"/>
        <circle cx="198.583" cy="177.17" r="3.089"/>
        <circle cx="198.583" cy="93.836" r="3.089"/>
        <circle cx="198.583" cy="260.676" r="3.089"/>
        <circle cx="198.583" cy="343.836" r="3.089"/>
        <circle cx="198.583" cy="51.997" r="3.089"/>
        <circle cx="198.583" cy="218.836" r="3.089"/>
        <circle cx="198.583" cy="135.503" r="3.089"/>
        <circle cx="198.583" cy="302.342" r="3.089"/>
        <circle cx="198.583" cy="385.503" r="3.089"/>
        <circle cx="177.75" cy="31.164" r="3.089"/>
        <circle cx="177.75" cy="198.003" r="3.089"/>
        <circle cx="177.75" cy="114.67" r="3.089"/>
        <circle cx="177.75" cy="281.509" r="3.089"/>
        <circle cx="177.75" cy="364.67" r="3.089"/>
        <circle cx="177.75" cy="72.83" r="3.089"/>
        <circle cx="177.75" cy="239.67" r="3.089"/>
        <circle cx="177.75" cy="156.336" r="3.089"/>
        <circle cx="177.75" cy="323.176" r="3.089"/>
        <circle cx="177.75" cy="406.336" r="3.089"/>
        <circle cx="240.25" cy="10.33" r="3.089"/>
        <circle cx="240.25" cy="177.17" r="3.089"/>
        <circle cx="240.25" cy="93.836" r="3.089"/>
        <circle cx="240.25" cy="260.676" r="3.089"/>
        <circle cx="240.25" cy="343.836" r="3.089"/>
        <circle cx="240.25" cy="51.997" r="3.089"/>
        <circle cx="240.25" cy="218.836" r="3.089"/>
        <circle cx="240.25" cy="135.503" r="3.089"/>
        <circle cx="240.25" cy="302.342" r="3.089"/>
        <circle cx="240.25" cy="385.503" r="3.089"/>
        <circle cx="219.417" cy="31.164" r="3.089"/>
        <circle cx="219.417" cy="198.003" r="3.089"/>
        <circle cx="219.417" cy="114.67" r="3.089"/>
        <circle cx="219.417" cy="281.509" r="3.089"/>
        <circle cx="219.417" cy="364.67" r="3.089"/>
        <circle cx="219.417" cy="72.83" r="3.089"/>
        <circle cx="219.417" cy="239.67" r="3.089"/>
        <circle cx="219.417" cy="156.336" r="3.089"/>
        <circle cx="219.417" cy="323.176" r="3.089"/>
        <circle cx="219.417" cy="406.336" r="3.089"/>
        <circle cx="281.917" cy="10.33" r="3.089"/>
        <circle cx="281.917" cy="177.17" r="3.089"/>
        <circle cx="281.917" cy="93.836" r="3.089"/>
        <circle cx="281.917" cy="260.676" r="3.089"/>
        <circle cx="281.917" cy="343.836" r="3.089"/>
        <circle cx="281.917" cy="51.997" r="3.089"/>
        <circle cx="281.917" cy="218.836" r="3.089"/>
        <circle cx="281.917" cy="135.503" r="3.089"/>
        <circle cx="281.917" cy="302.342" r="3.089"/>
        <circle cx="281.917" cy="385.503" r="3.089"/>
        <circle cx="261.083" cy="31.164" r="3.089"/>
        <circle cx="261.083" cy="198.003" r="3.089"/>
        <circle cx="261.083" cy="114.67" r="3.089"/>
        <circle cx="261.083" cy="281.509" r="3.089"/>
        <circle cx="261.083" cy="364.67" r="3.089"/>
        <circle cx="261.083" cy="72.83" r="3.089"/>
        <circle cx="261.083" cy="239.67" r="3.089"/>
        <circle cx="261.083" cy="156.336" r="3.089"/>
        <circle cx="261.083" cy="323.176" r="3.089"/>
        <circle cx="261.083" cy="406.336" r="3.089"/>
        <circle cx="323.583" cy="10.33" r="3.089"/>
        <circle cx="323.583" cy="177.17" r="3.089"/>
        <circle cx="323.583" cy="93.836" r="3.089"/>
        <circle cx="323.583" cy="260.676" r="3.089"/>
        <circle cx="323.583" cy="343.836" r="3.089"/>
        <circle cx="323.583" cy="51.997" r="3.089"/>
        <circle cx="323.583" cy="218.836" r="3.089"/>
        <circle cx="323.583" cy="135.503" r="3.089"/>
        <circle cx="323.583" cy="302.342" r="3.089"/>
        <circle cx="323.583" cy="385.503" r="3.089"/>
        <circle cx="302.75" cy="31.164" r="3.089"/>
        <circle cx="302.75" cy="198.003" r="3.089"/>
        <circle cx="302.75" cy="114.67" r="3.089"/>
        <circle cx="302.75" cy="281.509" r="3.089"/>
        <circle cx="302.75" cy="364.67" r="3.089"/>
        <circle cx="302.75" cy="72.83" r="3.089"/>
        <circle cx="302.75" cy="239.67" r="3.089"/>
        <circle cx="302.75" cy="156.336" r="3.089"/>
        <circle cx="302.75" cy="323.176" r="3.089"/>
        <circle cx="302.75" cy="406.336" r="3.089"/>
        <circle cx="365.25" cy="10.33" r="3.089"/>
        <circle cx="365.25" cy="177.17" r="3.089"/>
        <circle cx="365.25" cy="93.836" r="3.089"/>
        <circle cx="365.25" cy="260.676" r="3.089"/>
        <circle cx="365.25" cy="343.836" r="3.089"/>
        <circle cx="365.25" cy="51.997" r="3.089"/>
        <circle cx="365.25" cy="218.836" r="3.089"/>
        <circle cx="365.25" cy="135.503" r="3.089"/>
        <circle cx="365.25" cy="302.342" r="3.089"/>
        <circle cx="365.25" cy="385.503" r="3.089"/>
        <circle cx="344.417" cy="31.164" r="3.089"/>
        <circle cx="344.417" cy="198.003" r="3.089"/>
        <circle cx="344.417" cy="114.67" r="3.089"/>
        <circle cx="344.417" cy="281.509" r="3.089"/>
        <circle cx="344.417" cy="364.67" r="3.089"/>
        <circle cx="344.417" cy="72.83" r="3.089"/>
        <circle cx="344.417" cy="239.67" r="3.089"/>
        <circle cx="344.417" cy="156.336" r="3.089"/>
        <circle cx="344.417" cy="323.176" r="3.089"/>
        <circle cx="344.417" cy="406.336" r="3.089"/>
        <circle cx="406.917" cy="10.33" r="3.089"/>
        <circle cx="406.917" cy="177.17" r="3.089"/>
        <circle cx="406.917" cy="93.836" r="3.089"/>
        <circle cx="406.917" cy="260.676" r="3.089"/>
        <circle cx="406.917" cy="343.836" r="3.089"/>
        <circle cx="406.917" cy="51.997" r="3.089"/>
        <circle cx="406.917" cy="218.836" r="3.089"/>
        <circle cx="406.917" cy="135.503" r="3.089"/>
        <circle cx="406.917" cy="302.342" r="3.089"/>
        <circle cx="406.917" cy="385.503" r="3.089"/>
        <circle cx="386.083" cy="31.164" r="3.089"/>
        <circle cx="386.083" cy="198.003" r="3.089"/>
        <circle cx="386.083" cy="114.67" r="3.089"/>
        <circle cx="386.083" cy="281.509" r="3.089"/>
        <circle cx="386.083" cy="364.67" r="3.089"/>
        <circle cx="386.083" cy="72.83" r="3.089"/>
        <circle cx="386.083" cy="239.67" r="3.089"/>
        <circle cx="386.083" cy="156.336" r="3.089"/>
        <circle cx="386.083" cy="323.176" r="3.089"/>
        <circle cx="386.083" cy="406.336" r="3.089"/>
    </g>
</svg>
