<?xml version="1.0" encoding="UTF-8" standalone="no"?>
<!DOCTYPE svg PUBLIC "-//W3C//DTD SVG 1.1//EN" "http://www.w3.org/Graphics/SVG/1.1/DTD/svg11.dtd">
<svg width="417px" height="417px" version="1.1" xmlns="http://www.w3.org/2000/svg" xmlns:xlink="http://www.w3.org/1999/xlink" xml:space="preserve" xmlns:serif="http://www.serif.com/" style="fill-rule:evenodd;clip-rule:evenodd;stroke-linejoin:round;stroke-miterlimit:2;">
    <rect id="dots" x="0" y="0" width="416.667" height="416.667" style="fill:none;"/>
    <circle cx="31.25" cy="10.33" r="3.089"/>
    <circle cx="31.25" cy="177.17" r="3.089"/>
    <circle cx="31.25" cy="93.836" r="3.089"/>
    <circle cx="31.25" cy="260.676" r="3.089"/>
    <circle cx="31.25" cy="343.836" r="3.089"/>
    <circle cx="31.25" cy="51.997" r="3.089"/>
    <circle cx="31.25" cy="218.836" r="3.089"/>
    <circle cx="31.25" cy="135.503" r="3.089"/>
    <circle cx="31.25" cy="302.342" r="3.089"/>
    <circle cx="31.25" cy="385.503" r="3.089"/>
    <circle cx="10.417" cy="31.164" r="3.089"/>
    <circle cx="10.417" cy="198.003" r="3.089"/>
    <circle cx="10.417" cy="114.67" r="3.089"/>
    <circle cx="10.417" cy="281.509" r="3.089"/>
    <circle cx="10.417" cy="364.67" r="3.089"/>
    <circle cx="10.417" cy="72.83" r="3.089"/>
    <circle cx="10.417" cy="239.67" r="3.089"/>
    <circle cx="10.417" cy="156.336" r="3.089"/>
    <circle cx="10.417" cy="323.176" r="3.089"/>
    <circle cx="10.417" cy="406.336" r="3.089"/>
    <circle cx="72.917" cy="10.33" r="3.089"/>
    <circle cx="72.917" cy="177.17" r="3.089"/>
    <circle cx="72.917" cy="93.836" r="3.089"/>
    <circle cx="72.917" cy="260.676" r="3.089"/>
    <circle cx="72.917" cy="343.836" r="3.089"/>
    <circle cx="72.917" cy="51.997" r="3.089"/>
    <circle cx="72.917" cy="218.836" r="3.089"/>
    <circle cx="72.917" cy="135.503" r="3.089"/>
    <circle cx="72.917" cy="302.342" r="3.089"/>
    <circle cx="72.917" cy="385.503" r="3.089"/>
    <circle cx="52.083" cy="31.164" r="3.089"/>
    <circle cx="52.083" cy="198.003" r="3.089"/>
    <circle cx="52.083" cy="114.67" r="3.089"/>
    <circle cx="52.083" cy="281.509" r="3.089"/>
    <circle cx="52.083" cy="364.67" r="3.089"/>
    <circle cx="52.083" cy="72.83" r="3.089"/>
    <circle cx="52.083" cy="239.67" r="3.089"/>
    <circle cx="52.083" cy="156.336" r="3.089"/>
    <circle cx="52.083" cy="323.176" r="3.089"/>
    <circle cx="52.083" cy="406.336" r="3.089"/>
    <circle cx="114.583" cy="10.33" r="3.089"/>
    <circle cx="114.583" cy="177.17" r="3.089"/>
    <circle cx="114.583" cy="93.836" r="3.089"/>
    <circle cx="114.583" cy="260.676" r="3.089"/>
    <circle cx="114.583" cy="343.836" r="3.089"/>
    <circle cx="114.583" cy="51.997" r="3.089"/>
    <circle cx="114.583" cy="218.836" r="3.089"/>
    <circle cx="114.583" cy="135.503" r="3.089"/>
    <circle cx="114.583" cy="302.342" r="3.089"/>
    <circle cx="114.583" cy="385.503" r="3.089"/>
    <circle cx="93.75" cy="31.164" r="3.089"/>
    <circle cx="93.75" cy="198.003" r="3.089"/>
    <circle cx="93.75" cy="114.67" r="3.089"/>
    <circle cx="93.75" cy="281.509" r="3.089"/>
    <circle cx="93.75" cy="364.67" r="3.089"/>
    <circle cx="93.75" cy="72.83" r="3.089"/>
    <circle cx="93.75" cy="239.67" r="3.089"/>
    <circle cx="93.75" cy="156.336" r="3.089"/>
    <circle cx="93.75" cy="323.176" r="3.089"/>
    <circle cx="93.75" cy="406.336" r="3.089"/>
    <circle cx="156.25" cy="10.33" r="3.089"/>
    <circle cx="156.25" cy="177.17" r="3.089"/>
    <circle cx="156.25" cy="93.836" r="3.089"/>
    <circle cx="156.25" cy="260.676" r="3.089"/>
    <circle cx="156.25" cy="343.836" r="3.089"/>
    <circle cx="156.25" cy="51.997" r="3.089"/>
    <circle cx="156.25" cy="218.836" r="3.089"/>
    <circle cx="156.25" cy="135.503" r="3.089"/>
    <circle cx="156.25" cy="302.342" r="3.089"/>
    <circle cx="156.25" cy="385.503" r="3.089"/>
    <circle cx="135.417" cy="31.164" r="3.089"/>
    <circle cx="135.417" cy="198.003" r="3.089"/>
    <circle cx="135.417" cy="114.67" r="3.089"/>
    <circle cx="135.417" cy="281.509" r="3.089"/>
    <circle cx="135.417" cy="364.67" r="3.089"/>
    <circle cx="135.417" cy="72.83" r="3.089"/>
    <circle cx="135.417" cy="239.67" r="3.089"/>
    <circle cx="135.417" cy="156.336" r="3.089"/>
    <circle cx="135.417" cy="323.176" r="3.089"/>
    <circle cx="135.417" cy="406.336" r="3.089"/>
    <circle cx="197.917" cy="10.33" r="3.089"/>
    <circle cx="197.917" cy="177.17" r="3.089"/>
    <circle cx="197.917" cy="93.836" r="3.089"/>
    <circle cx="197.917" cy="260.676" r="3.089"/>
    <circle cx="197.917" cy="343.836" r="3.089"/>
    <circle cx="197.917" cy="51.997" r="3.089"/>
    <circle cx="197.917" cy="218.836" r="3.089"/>
    <circle cx="197.917" cy="135.503" r="3.089"/>
    <circle cx="197.917" cy="302.342" r="3.089"/>
    <circle cx="197.917" cy="385.503" r="3.089"/>
    <circle cx="177.083" cy="31.164" r="3.089"/>
    <circle cx="177.083" cy="198.003" r="3.089"/>
    <circle cx="177.083" cy="114.67" r="3.089"/>
    <circle cx="177.083" cy="281.509" r="3.089"/>
    <circle cx="177.083" cy="364.67" r="3.089"/>
    <circle cx="177.083" cy="72.83" r="3.089"/>
    <circle cx="177.083" cy="239.67" r="3.089"/>
    <circle cx="177.083" cy="156.336" r="3.089"/>
    <circle cx="177.083" cy="323.176" r="3.089"/>
    <circle cx="177.083" cy="406.336" r="3.089"/>
    <circle cx="239.583" cy="10.33" r="3.089"/>
    <circle cx="239.583" cy="177.17" r="3.089"/>
    <circle cx="239.583" cy="93.836" r="3.089"/>
    <circle cx="239.583" cy="260.676" r="3.089"/>
    <circle cx="239.583" cy="343.836" r="3.089"/>
    <circle cx="239.583" cy="51.997" r="3.089"/>
    <circle cx="239.583" cy="218.836" r="3.089"/>
    <circle cx="239.583" cy="135.503" r="3.089"/>
    <circle cx="239.583" cy="302.342" r="3.089"/>
    <circle cx="239.583" cy="385.503" r="3.089"/>
    <circle cx="218.75" cy="31.164" r="3.089"/>
    <circle cx="218.75" cy="198.003" r="3.089"/>
    <circle cx="218.75" cy="114.67" r="3.089"/>
    <circle cx="218.75" cy="281.509" r="3.089"/>
    <circle cx="218.75" cy="364.67" r="3.089"/>
    <circle cx="218.75" cy="72.83" r="3.089"/>
    <circle cx="218.75" cy="239.67" r="3.089"/>
    <circle cx="218.75" cy="156.336" r="3.089"/>
    <circle cx="218.75" cy="323.176" r="3.089"/>
    <circle cx="218.75" cy="406.336" r="3.089"/>
    <circle cx="281.25" cy="10.33" r="3.089"/>
    <circle cx="281.25" cy="177.17" r="3.089"/>
    <circle cx="281.25" cy="93.836" r="3.089"/>
    <circle cx="281.25" cy="260.676" r="3.089"/>
    <circle cx="281.25" cy="343.836" r="3.089"/>
    <circle cx="281.25" cy="51.997" r="3.089"/>
    <circle cx="281.25" cy="218.836" r="3.089"/>
    <circle cx="281.25" cy="135.503" r="3.089"/>
    <circle cx="281.25" cy="302.342" r="3.089"/>
    <circle cx="281.25" cy="385.503" r="3.089"/>
    <circle cx="260.417" cy="31.164" r="3.089"/>
    <circle cx="260.417" cy="198.003" r="3.089"/>
    <circle cx="260.417" cy="114.67" r="3.089"/>
    <circle cx="260.417" cy="281.509" r="3.089"/>
    <circle cx="260.417" cy="364.67" r="3.089"/>
    <circle cx="260.417" cy="72.83" r="3.089"/>
    <circle cx="260.417" cy="239.67" r="3.089"/>
    <circle cx="260.417" cy="156.336" r="3.089"/>
    <circle cx="260.417" cy="323.176" r="3.089"/>
    <circle cx="260.417" cy="406.336" r="3.089"/>
    <circle cx="322.917" cy="10.33" r="3.089"/>
    <circle cx="322.917" cy="177.17" r="3.089"/>
    <circle cx="322.917" cy="93.836" r="3.089"/>
    <circle cx="322.917" cy="260.676" r="3.089"/>
    <circle cx="322.917" cy="343.836" r="3.089"/>
    <circle cx="322.917" cy="51.997" r="3.089"/>
    <circle cx="322.917" cy="218.836" r="3.089"/>
    <circle cx="322.917" cy="135.503" r="3.089"/>
    <circle cx="322.917" cy="302.342" r="3.089"/>
    <circle cx="322.917" cy="385.503" r="3.089"/>
    <circle cx="302.083" cy="31.164" r="3.089"/>
    <circle cx="302.083" cy="198.003" r="3.089"/>
    <circle cx="302.083" cy="114.67" r="3.089"/>
    <circle cx="302.083" cy="281.509" r="3.089"/>
    <circle cx="302.083" cy="364.67" r="3.089"/>
    <circle cx="302.083" cy="72.83" r="3.089"/>
    <circle cx="302.083" cy="239.67" r="3.089"/>
    <circle cx="302.083" cy="156.336" r="3.089"/>
    <circle cx="302.083" cy="323.176" r="3.089"/>
    <circle cx="302.083" cy="406.336" r="3.089"/>
    <circle cx="364.583" cy="10.33" r="3.089"/>
    <circle cx="364.583" cy="177.17" r="3.089"/>
    <circle cx="364.583" cy="93.836" r="3.089"/>
    <circle cx="364.583" cy="260.676" r="3.089"/>
    <circle cx="364.583" cy="343.836" r="3.089"/>
    <circle cx="364.583" cy="51.997" r="3.089"/>
    <circle cx="364.583" cy="218.836" r="3.089"/>
    <circle cx="364.583" cy="135.503" r="3.089"/>
    <circle cx="364.583" cy="302.342" r="3.089"/>
    <circle cx="364.583" cy="385.503" r="3.089"/>
    <circle cx="343.75" cy="31.164" r="3.089"/>
    <circle cx="343.75" cy="198.003" r="3.089"/>
    <circle cx="343.75" cy="114.67" r="3.089"/>
    <circle cx="343.75" cy="281.509" r="3.089"/>
    <circle cx="343.75" cy="364.67" r="3.089"/>
    <circle cx="343.75" cy="72.83" r="3.089"/>
    <circle cx="343.75" cy="239.67" r="3.089"/>
    <circle cx="343.75" cy="156.336" r="3.089"/>
    <circle cx="343.75" cy="323.176" r="3.089"/>
    <circle cx="343.75" cy="406.336" r="3.089"/>
    <circle cx="406.25" cy="10.33" r="3.089"/>
    <circle cx="406.25" cy="177.17" r="3.089"/>
    <circle cx="406.25" cy="93.836" r="3.089"/>
    <circle cx="406.25" cy="260.676" r="3.089"/>
    <circle cx="406.25" cy="343.836" r="3.089"/>
    <circle cx="406.25" cy="51.997" r="3.089"/>
    <circle cx="406.25" cy="218.836" r="3.089"/>
    <circle cx="406.25" cy="135.503" r="3.089"/>
    <circle cx="406.25" cy="302.342" r="3.089"/>
    <circle cx="406.25" cy="385.503" r="3.089"/>
    <circle cx="385.417" cy="31.164" r="3.089"/>
    <circle cx="385.417" cy="198.003" r="3.089"/>
    <circle cx="385.417" cy="114.67" r="3.089"/>
    <circle cx="385.417" cy="281.509" r="3.089"/>
    <circle cx="385.417" cy="364.67" r="3.089"/>
    <circle cx="385.417" cy="72.83" r="3.089"/>
    <circle cx="385.417" cy="239.67" r="3.089"/>
    <circle cx="385.417" cy="156.336" r="3.089"/>
    <circle cx="385.417" cy="323.176" r="3.089"/>
    <circle cx="385.417" cy="406.336" r="3.089"/>
</svg>
