<?xml version="1.0" encoding="UTF-8" standalone="no"?>
<!DOCTYPE svg PUBLIC "-//W3C//DTD SVG 1.1//EN" "http://www.w3.org/Graphics/SVG/1.1/DTD/svg11.dtd">
<svg width="375px" height="375px" version="1.1" xmlns="http://www.w3.org/2000/svg" xmlns:xlink="http://www.w3.org/1999/xlink" xml:space="preserve" xmlns:serif="http://www.serif.com/" style="fill-rule:evenodd;clip-rule:evenodd;stroke-linecap:round;stroke-linejoin:round;stroke-miterlimit:1.5;">
    <rect id="waves" x="0" y="0" width="375" height="375" style="fill:none;"/>
    <clipPath id="_clip1">
        <rect x="0" y="0" width="375" height="375"/>
    </clipPath>
    <g clip-path="url(#_clip1)">
        <path d="M94.378,18.053c-0.887,0.177 -1.824,0.271 -2.793,0.271c-4.585,0 -8.463,-2.118 -9.704,-5.018c-1.242,2.9 -5.119,5.018 -9.704,5.018c-4.586,0 -8.463,-2.118 -9.705,-5.018c-1.241,2.9 -5.118,5.018 -9.704,5.018c-4.585,0 -8.462,-2.118 -9.704,-5.018c-1.241,2.9 -5.119,5.018 -9.704,5.018c-0.949,0 -1.867,-0.091 -2.738,-0.26" style="fill:none;stroke:black;stroke-width:4.17px;"/>
        <path d="M94.378,143.081c-0.887,0.176 -1.824,0.271 -2.793,0.271c-4.585,-0 -8.463,-2.118 -9.704,-5.019c-1.242,2.901 -5.119,5.019 -9.704,5.019c-4.586,-0 -8.463,-2.118 -9.705,-5.019c-1.241,2.901 -5.118,5.019 -9.704,5.019c-4.585,-0 -8.462,-2.118 -9.704,-5.019c-1.241,2.901 -5.119,5.019 -9.704,5.019c-0.949,-0 -1.867,-0.091 -2.738,-0.26" style="fill:none;stroke:black;stroke-width:4.17px;"/>
        <path d="M94.378,268.109c-0.887,0.176 -1.824,0.27 -2.793,0.27c-4.585,0 -8.463,-2.118 -9.704,-5.018c-1.242,2.9 -5.119,5.018 -9.704,5.018c-4.586,0 -8.463,-2.118 -9.705,-5.018c-1.241,2.9 -5.118,5.018 -9.704,5.018c-4.585,0 -8.462,-2.118 -9.704,-5.018c-1.241,2.9 -5.119,5.018 -9.704,5.018c-0.949,0 -1.867,-0.09 -2.738,-0.26" style="fill:none;stroke:black;stroke-width:4.17px;"/>
        <path d="M156.673,80.581c-0.888,0.176 -1.825,0.271 -2.793,0.271c-4.586,-0 -8.463,-2.118 -9.704,-5.019c-1.242,2.901 -5.119,5.019 -9.705,5.019c-4.585,-0 -8.462,-2.118 -9.704,-5.019c-1.241,2.901 -5.119,5.019 -9.704,5.019c-4.586,-0 -8.463,-2.118 -9.704,-5.019c-1.242,2.901 -5.119,5.019 -9.705,5.019c-0.948,-0 -1.866,-0.091 -2.737,-0.26" style="fill:none;stroke:black;stroke-width:4.17px;"/>
        <path d="M31.673,80.581c-0.888,0.176 -1.825,0.271 -2.793,0.271c-4.586,-0 -8.463,-2.118 -9.704,-5.019c-1.242,2.901 -5.119,5.019 -9.705,5.019c-4.585,-0 -8.462,-2.118 -9.704,-5.019c-1.241,2.901 -5.119,5.019 -9.704,5.019c-4.586,-0 -8.463,-2.118 -9.704,-5.019c-1.242,2.901 -5.119,5.019 -9.705,5.019c-0.948,-0 -1.866,-0.091 -2.737,-0.26" style="fill:none;stroke:black;stroke-width:4.17px;"/>
        <path d="M156.673,205.609c-0.888,0.176 -1.825,0.27 -2.793,0.27c-4.586,0 -8.463,-2.118 -9.704,-5.018c-1.242,2.9 -5.119,5.018 -9.705,5.018c-4.585,0 -8.462,-2.118 -9.704,-5.018c-1.241,2.9 -5.119,5.018 -9.704,5.018c-4.586,0 -8.463,-2.118 -9.704,-5.018c-1.242,2.9 -5.119,5.018 -9.705,5.018c-0.948,0 -1.866,-0.09 -2.737,-0.26" style="fill:none;stroke:black;stroke-width:4.17px;"/>
        <path d="M31.673,205.609c-0.888,0.176 -1.825,0.27 -2.793,0.27c-4.586,0 -8.463,-2.118 -9.704,-5.018c-1.242,2.9 -5.119,5.018 -9.705,5.018c-4.585,0 -8.462,-2.118 -9.704,-5.018c-1.241,2.9 -5.119,5.018 -9.704,5.018c-4.586,0 -8.463,-2.118 -9.704,-5.018c-1.242,2.9 -5.119,5.018 -9.705,5.018c-0.948,0 -1.866,-0.09 -2.737,-0.26" style="fill:none;stroke:black;stroke-width:4.17px;"/>
        <path d="M156.673,330.636c-0.888,0.177 -1.825,0.271 -2.793,0.271c-4.586,0 -8.463,-2.118 -9.704,-5.018c-1.242,2.9 -5.119,5.018 -9.705,5.018c-4.585,0 -8.462,-2.118 -9.704,-5.018c-1.241,2.9 -5.119,5.018 -9.704,5.018c-4.586,0 -8.463,-2.118 -9.704,-5.018c-1.242,2.9 -5.119,5.018 -9.705,5.018c-0.948,0 -1.866,-0.09 -2.737,-0.26" style="fill:none;stroke:black;stroke-width:4.17px;"/>
        <path d="M31.673,330.636c-0.888,0.177 -1.825,0.271 -2.793,0.271c-4.586,0 -8.463,-2.118 -9.704,-5.018c-1.242,2.9 -5.119,5.018 -9.705,5.018c-4.585,0 -8.462,-2.118 -9.704,-5.018c-1.241,2.9 -5.119,5.018 -9.704,5.018c-4.586,0 -8.463,-2.118 -9.704,-5.018c-1.242,2.9 -5.119,5.018 -9.705,5.018c-0.948,0 -1.866,-0.09 -2.737,-0.26" style="fill:none;stroke:black;stroke-width:4.17px;"/>
        <path d="M219.378,18.053c-0.887,0.177 -1.824,0.271 -2.793,0.271c-4.585,0 -8.463,-2.118 -9.704,-5.018c-1.242,2.9 -5.119,5.018 -9.704,5.018c-4.586,0 -8.463,-2.118 -9.705,-5.018c-1.241,2.9 -5.118,5.018 -9.704,5.018c-4.585,0 -8.462,-2.118 -9.704,-5.018c-1.241,2.9 -5.119,5.018 -9.704,5.018c-0.949,0 -1.867,-0.091 -2.738,-0.26" style="fill:none;stroke:black;stroke-width:4.17px;"/>
        <path d="M219.378,143.081c-0.887,0.176 -1.824,0.271 -2.793,0.271c-4.585,-0 -8.463,-2.118 -9.704,-5.019c-1.242,2.901 -5.119,5.019 -9.704,5.019c-4.586,-0 -8.463,-2.118 -9.705,-5.019c-1.241,2.901 -5.118,5.019 -9.704,5.019c-4.585,-0 -8.462,-2.118 -9.704,-5.019c-1.241,2.901 -5.119,5.019 -9.704,5.019c-0.949,-0 -1.867,-0.091 -2.738,-0.26" style="fill:none;stroke:black;stroke-width:4.17px;"/>
        <path d="M219.378,268.109c-0.887,0.176 -1.824,0.27 -2.793,0.27c-4.585,0 -8.463,-2.118 -9.704,-5.018c-1.242,2.9 -5.119,5.018 -9.704,5.018c-4.586,0 -8.463,-2.118 -9.705,-5.018c-1.241,2.9 -5.118,5.018 -9.704,5.018c-4.585,0 -8.462,-2.118 -9.704,-5.018c-1.241,2.9 -5.119,5.018 -9.704,5.018c-0.949,0 -1.867,-0.09 -2.738,-0.26" style="fill:none;stroke:black;stroke-width:4.17px;"/>
        <path d="M281.673,80.581c-0.888,0.176 -1.825,0.271 -2.793,0.271c-4.586,-0 -8.463,-2.118 -9.704,-5.019c-1.242,2.901 -5.119,5.019 -9.705,5.019c-4.585,-0 -8.462,-2.118 -9.704,-5.019c-1.241,2.901 -5.119,5.019 -9.704,5.019c-4.586,-0 -8.463,-2.118 -9.704,-5.019c-1.242,2.901 -5.119,5.019 -9.705,5.019c-0.948,-0 -1.866,-0.091 -2.737,-0.26" style="fill:none;stroke:black;stroke-width:4.17px;"/>
        <path d="M281.673,205.609c-0.888,0.176 -1.825,0.27 -2.793,0.27c-4.586,0 -8.463,-2.118 -9.704,-5.018c-1.242,2.9 -5.119,5.018 -9.705,5.018c-4.585,0 -8.462,-2.118 -9.704,-5.018c-1.241,2.9 -5.119,5.018 -9.704,5.018c-4.586,0 -8.463,-2.118 -9.704,-5.018c-1.242,2.9 -5.119,5.018 -9.705,5.018c-0.948,0 -1.866,-0.09 -2.737,-0.26" style="fill:none;stroke:black;stroke-width:4.17px;"/>
        <path d="M281.673,330.636c-0.888,0.177 -1.825,0.271 -2.793,0.271c-4.586,0 -8.463,-2.118 -9.704,-5.018c-1.242,2.9 -5.119,5.018 -9.705,5.018c-4.585,0 -8.462,-2.118 -9.704,-5.018c-1.241,2.9 -5.119,5.018 -9.704,5.018c-4.586,0 -8.463,-2.118 -9.704,-5.018c-1.242,2.9 -5.119,5.018 -9.705,5.018c-0.948,0 -1.866,-0.09 -2.737,-0.26" style="fill:none;stroke:black;stroke-width:4.17px;"/>
        <path d="M344.378,18.053c-0.887,0.177 -1.824,0.271 -2.793,0.271c-4.585,0 -8.463,-2.118 -9.704,-5.018c-1.242,2.9 -5.119,5.018 -9.704,5.018c-4.586,0 -8.463,-2.118 -9.705,-5.018c-1.241,2.9 -5.118,5.018 -9.704,5.018c-4.585,0 -8.462,-2.118 -9.704,-5.018c-1.241,2.9 -5.119,5.018 -9.704,5.018c-0.949,0 -1.867,-0.091 -2.738,-0.26" style="fill:none;stroke:black;stroke-width:4.17px;"/>
        <path d="M344.378,143.081c-0.887,0.176 -1.824,0.271 -2.793,0.271c-4.585,-0 -8.463,-2.118 -9.704,-5.019c-1.242,2.901 -5.119,5.019 -9.704,5.019c-4.586,-0 -8.463,-2.118 -9.705,-5.019c-1.241,2.901 -5.118,5.019 -9.704,5.019c-4.585,-0 -8.462,-2.118 -9.704,-5.019c-1.241,2.901 -5.119,5.019 -9.704,5.019c-0.949,-0 -1.867,-0.091 -2.738,-0.26" style="fill:none;stroke:black;stroke-width:4.17px;"/>
        <path d="M344.378,268.109c-0.887,0.176 -1.824,0.27 -2.793,0.27c-4.585,0 -8.463,-2.118 -9.704,-5.018c-1.242,2.9 -5.119,5.018 -9.704,5.018c-4.586,0 -8.463,-2.118 -9.705,-5.018c-1.241,2.9 -5.118,5.018 -9.704,5.018c-4.585,0 -8.462,-2.118 -9.704,-5.018c-1.241,2.9 -5.119,5.018 -9.704,5.018c-0.949,0 -1.867,-0.09 -2.738,-0.26" style="fill:none;stroke:black;stroke-width:4.17px;"/>
        <path d="M406.673,80.581c-0.888,0.176 -1.825,0.271 -2.793,0.271c-4.586,-0 -8.463,-2.118 -9.704,-5.019c-1.242,2.901 -5.119,5.019 -9.705,5.019c-4.585,-0 -8.462,-2.118 -9.704,-5.019c-1.241,2.901 -5.119,5.019 -9.704,5.019c-4.586,-0 -8.463,-2.118 -9.704,-5.019c-1.242,2.901 -5.119,5.019 -9.705,5.019c-0.948,-0 -1.866,-0.091 -2.737,-0.26" style="fill:none;stroke:black;stroke-width:4.17px;"/>
        <path d="M406.673,205.609c-0.888,0.176 -1.825,0.27 -2.793,0.27c-4.586,0 -8.463,-2.118 -9.704,-5.018c-1.242,2.9 -5.119,5.018 -9.705,5.018c-4.585,0 -8.462,-2.118 -9.704,-5.018c-1.241,2.9 -5.119,5.018 -9.704,5.018c-4.586,0 -8.463,-2.118 -9.704,-5.018c-1.242,2.9 -5.119,5.018 -9.705,5.018c-0.948,0 -1.866,-0.09 -2.737,-0.26" style="fill:none;stroke:black;stroke-width:4.17px;"/>
        <path d="M406.673,330.636c-0.888,0.177 -1.825,0.271 -2.793,0.271c-4.586,0 -8.463,-2.118 -9.704,-5.018c-1.242,2.9 -5.119,5.018 -9.705,5.018c-4.585,0 -8.462,-2.118 -9.704,-5.018c-1.241,2.9 -5.119,5.018 -9.704,5.018c-4.586,0 -8.463,-2.118 -9.704,-5.018c-1.242,2.9 -5.119,5.018 -9.705,5.018c-0.948,0 -1.866,-0.09 -2.737,-0.26" style="fill:none;stroke:black;stroke-width:4.17px;"/>
    </g>
</svg>
