<?xml version="1.0" encoding="UTF-8" standalone="no"?>
<!DOCTYPE svg PUBLIC "-//W3C//DTD SVG 1.1//EN" "http://www.w3.org/Graphics/SVG/1.1/DTD/svg11.dtd">
<svg width="50px" height="51px" version="1.1" xmlns="http://www.w3.org/2000/svg" xmlns:xlink="http://www.w3.org/1999/xlink" xml:space="preserve" xmlns:serif="http://www.serif.com/" style="fill-rule:evenodd;clip-rule:evenodd;stroke-linejoin:round;stroke-miterlimit:2;">
    <g id="major-site">
        <path d="M24.747,50.157c-13.667,0 -24.745,-11.083 -24.745,-24.745c-0,-13.668 11.078,-24.742 24.745,-24.742c13.668,-0 24.746,11.074 24.746,24.742c0,13.662 -11.078,24.745 -24.746,24.745Zm0,-4.166c11.367,-0 20.58,-9.217 20.58,-20.579c-0,-11.366 -9.214,-20.575 -20.58,-20.575c-11.365,-0 -20.579,9.209 -20.579,20.575c0,11.362 9.213,20.579 20.579,20.579Z"/>
        <path d="M24.747,38.121c-7.016,0 -12.708,-5.695 -12.708,-12.712c0,-7.017 5.692,-12.713 12.708,-12.713c7.017,0 12.709,5.696 12.709,12.713c-0,7.017 -5.692,12.712 -12.709,12.712Z"/>
    </g>
</svg>
