<?xml version="1.0" encoding="UTF-8" standalone="no"?>
<!DOCTYPE svg PUBLIC "-//W3C//DTD SVG 1.1//EN" "http://www.w3.org/Graphics/SVG/1.1/DTD/svg11.dtd">
<svg width="100px" height="102px" version="1.1" xmlns="http://www.w3.org/2000/svg" xmlns:xlink="http://www.w3.org/1999/xlink" xml:space="preserve" xmlns:serif="http://www.serif.com/" style="fill-rule:evenodd;clip-rule:evenodd;stroke-linejoin:round;stroke-miterlimit:2;">
    <g id="major-site">
        <path d="M49.495,100.315c-27.335,-0 -49.492,-22.166 -49.492,-49.492c0,-27.334 22.157,-49.483 49.492,-49.483c27.335,-0 49.492,22.149 49.492,49.483c-0,27.326 -22.157,49.492 -49.492,49.492Zm-0,-8.333c22.732,-0 41.158,-18.434 41.158,-41.159c0,-22.732 -18.426,-41.15 -41.158,-41.15c-22.732,0 -41.158,18.418 -41.158,41.15c-0,22.725 18.426,41.159 41.158,41.159Z"/>
        <path d="M49.495,76.242c-14.034,0 -25.417,-11.391 -25.417,-25.425c0,-14.033 11.383,-25.425 25.417,-25.425c14.034,0 25.417,11.392 25.417,25.425c-0,14.034 -11.383,25.425 -25.417,25.425Z"/>
    </g>
</svg>
